<?xml version="1.0" encoding="UTF-8" standalone="no"?>
<!-- Created with Inkscape (http://www.inkscape.org/) -->

<svg
   version="1.1"
   id="svg2417"
   width="178.67139"
   height="162.09673"
   viewBox="0 0 178.67139 162.09672"
   sodipodi:docname="guy-chilling2.svg"
   inkscape:version="1.2.2 (b0a8486541, 2022-12-01)"
   xmlns:inkscape="http://www.inkscape.org/namespaces/inkscape"
   xmlns:sodipodi="http://sodipodi.sourceforge.net/DTD/sodipodi-0.dtd"
   xmlns="http://www.w3.org/2000/svg"
   xmlns:svg="http://www.w3.org/2000/svg">
  <defs
     id="defs2421" />
  <sodipodi:namedview
     id="namedview2419"
     pagecolor="#ffffff"
     bordercolor="#000000"
     borderopacity="0.25"
     inkscape:showpageshadow="2"
     inkscape:pageopacity="0.0"
     inkscape:pagecheckerboard="0"
     inkscape:deskcolor="#d1d1d1"
     showgrid="false"
     inkscape:zoom="4"
     inkscape:cx="53"
     inkscape:cy="70"
     inkscape:window-width="1920"
     inkscape:window-height="1045"
     inkscape:window-x="0"
     inkscape:window-y="4"
     inkscape:window-maximized="1"
     inkscape:current-layer="g3229">
    <inkscape:page
       x="0"
       y="0"
       id="page2423"
       width="178.67139"
       height="162.09673" />
  </sodipodi:namedview>
  <g
     id="g2425"
     inkscape:groupmode="layer"
     inkscape:label="Page 1"
     transform="matrix(1.3333333,0,0,-1.3333333,-44.195276,485.64159)">
    <g
       id="g2427"
       transform="scale(0.1)">
      <g
         id="g3229"
         transform="translate(-126.53585,-70.818008)">
        <path
           d="m 897.676,3464.55 c 0,0 128.264,-99.75 249.164,-118.09 120.89,-18.33 -61.13,-160 -61.13,-160 l -262.78,126.25 74.746,151.84"
           style="fill:#5e1dbb;fill-opacity:1;fill-rule:nonzero;stroke:none"
           id="path2999" />
        <path
           d="m 629.273,3289.72 c -9.855,7.87 -178.921,44.36 -171.003,-244.75 7.921,-289.11 367.46,-477.62 655.43,-370.34 271.79,101.25 12.33,448.07 12.33,448.07 l -496.757,167.02"
           style="fill:#252359;fill-opacity:1;fill-rule:nonzero;stroke:none"
           id="path3001" />
        <path
           d="m 670.93,2754.85 c -0.516,0 -1.032,0.14 -1.504,0.42 -94.883,56.78 -132.742,142.28 -133.113,143.14 -0.645,1.49 0.039,3.22 1.531,3.87 1.476,0.64 3.215,-0.04 3.859,-1.53 0.367,-0.84 37.543,-84.68 130.738,-140.44 1.391,-0.83 1.844,-2.64 1.012,-4.03 -0.547,-0.92 -1.523,-1.43 -2.523,-1.43"
           style="fill:#5e1dbb;fill-opacity:1;fill-rule:nonzero;stroke:none"
           id="path3003" />
        <path
           d="m 1034.3,2854.05 c 1.42,-16.14 -78.866,-36.38 -179.316,-45.2 -100.449,-8.82 -183.031,-2.88 -184.449,13.27 -1.418,16.14 78.863,36.38 179.317,45.2 100.453,8.82 183.038,2.88 184.448,-13.27"
           style="fill:#17173f;fill-opacity:1;fill-rule:nonzero;stroke:none"
           id="path3005" />
        <path
           d="m 1467.11,2564.19 c -6.28,-3.59 -371.02,15.3 -379.21,22.83 -2.93,2.69 -2.77,20.03 -0.42,44.72 4.23,44.94 29.63,121.69 43.69,169.03 0,0 127.65,-8.58 139.03,-15.84 11.47,-7.32 134.41,-111.1 134.41,-111.1 0,0 46.92,-17.85 63.74,-45.61 4.92,-8.14 7.42,-16.8 8.29,-24.89 2.11,-19.58 -5.13,-36.7 -9.53,-39.14"
           style="fill:#ffb700;fill-opacity:1;fill-rule:nonzero;stroke:none"
           id="path3007" />
        <path
           d="m 1467.11,2564.19 c -6.28,-3.59 -371.02,15.3 -379.21,22.83 -2.93,2.69 -2.77,20.03 -0.42,44.72 l 389.16,-28.41 c 2.11,-19.58 -5.13,-36.7 -9.53,-39.14"
           style="fill:#000000;fill-opacity:1;fill-rule:nonzero;stroke:none"
           id="path3009" />
        <path
           d="m 1362.5,2705.65 c -0.25,0.01 -106.79,8.54 -106.79,8.54 -1.25,0.11 -2.3,0.99 -2.6,2.21 -0.32,1.22 0.18,2.5 1.23,3.18 l 52.32,34.19 c 1.36,0.89 3.18,0.5 4.06,-0.85 0.9,-1.36 0.51,-3.18 -0.85,-4.07 l -45.12,-29.48 97.97,-7.85 c 1.62,-0.13 2.82,-1.54 2.7,-3.16 -0.13,-1.54 -1.42,-2.71 -2.92,-2.71"
           style="fill:#000000;fill-opacity:1;fill-rule:nonzero;stroke:none"
           id="path3011" />
        <path
           d="m 1020.8,3138.11 c 0,0 202.49,143.19 377.25,99.23 174.77,-43.96 -80.45,-468.96 -80.45,-468.96 l -254.05,-0.58 24.76,121.77 -304.982,0.59 134.578,190.55 102.894,57.4"
           style="fill:#c4068a;fill-opacity:1;fill-rule:nonzero;stroke:none"
           id="path3013" />
        <path
           d="m 1255.04,3112.36 c -0.53,0 -1.08,0.14 -1.56,0.45 -1.37,0.87 -1.78,2.69 -0.91,4.06 0.22,0.36 23.05,36.21 53.69,62.35 1.24,1.06 3.1,0.9 4.15,-0.33 1.05,-1.23 0.9,-3.09 -0.33,-4.14 -29.95,-25.55 -52.33,-60.67 -52.55,-61.02 -0.56,-0.89 -1.5,-1.37 -2.49,-1.37"
           style="fill:#5e1dbb;fill-opacity:1;fill-rule:nonzero;stroke:none"
           id="path3015" />
        <path
           d="m 673.227,2981.84 c 0,0 -97.25,360.09 -15.368,459.18 51.239,62 144.832,52.89 207.715,37.38 39.043,-9.63 69.707,-40.63 80.617,-80.27 L 1020.8,3127.09 673.227,2981.84"
           style="fill:#5e1dbb;fill-opacity:1;fill-rule:nonzero;stroke:none"
           id="path3017" />
        <path
           d="m 949.195,3292.52 c -1.328,0 -2.535,0.9 -2.855,2.25 -0.578,2.4 -14.016,58.75 -14.961,66.34 -0.203,1.6 0.945,3.07 2.551,3.27 1.593,0.23 3.074,-0.94 3.277,-2.56 0.723,-5.8 10.035,-45.5 14.844,-65.68 0.383,-1.59 -0.598,-3.17 -2.172,-3.54 -0.227,-0.06 -0.461,-0.08 -0.684,-0.08"
           style="fill:#000000;fill-opacity:1;fill-rule:nonzero;stroke:none"
           id="path3019" />
        <path
           d="m 828.547,3252.26 c 0,0 74.973,59.86 101.492,60.44 26.52,0.59 79.311,-30.61 76.961,-37.42 -2.34,-6.81 -57.801,3.16 -57.801,3.16 0,0 11.637,-61.91 8.082,-73.68 -3.551,-11.78 -41.949,-36.34 -48.976,-37.69 -7.032,-1.34 -15.184,22.61 -15.184,22.61 0,0 -23.062,-14.01 -48.047,-12.13 -24.992,1.89 -39.215,45.72 -39.215,45.72 l 22.688,28.99"
           style="fill:#f48462;fill-opacity:1;fill-rule:nonzero;stroke:none"
           id="path3021" />
        <path
           d="m 731.094,3537.64 1.527,-62.51 c 0,0 11.715,-17.69 48.352,-19.77 27.293,-1.55 34.461,7.94 34.461,7.94 l -2.321,28.47 -4.5,30.78 -66.383,12.91 -11.136,2.18"
           style="fill:#f48462;fill-opacity:1;fill-rule:nonzero;stroke:none"
           id="path3023" />
        <path
           d="m 743.277,3530.14 c 0.2,-1.63 0.895,-3.55 1.957,-5.75 14.672,-29.63 52.696,-35.28 68.305,-36.29 l -4.523,29.51 -65.739,12.53"
           style="fill:#000000;fill-opacity:1;fill-rule:nonzero;stroke:none"
           id="path3025" />
        <path
           d="m 816.918,3654.64 c 0,0 33.277,-74.34 21.906,-116.37 -11.379,-42.04 -49.636,-35.79 -72.57,-27.88 -22.926,7.9 -33.66,21.82 -33.66,21.82 0,0 -21.289,-7.43 -35.746,12.3 -14.461,19.72 -5.871,42.6 6.273,47.94 12.145,5.33 26.723,-3.34 26.723,-3.34 l -11.559,21.59 c 0,0 46.817,110.65 98.633,43.94"
           style="fill:#f48462;fill-opacity:1;fill-rule:nonzero;stroke:none"
           id="path3027" />
        <path
           d="m 814.32,3559.22 c -0.281,0 -0.574,0.04 -0.867,0.13 -1.543,0.47 -2.418,2.12 -1.945,3.67 4.144,13.5 -6.016,28.09 -6.121,28.23 -0.934,1.33 -0.625,3.16 0.699,4.1 1.324,0.94 3.16,0.62 4.094,-0.7 0.488,-0.69 11.929,-17.12 6.945,-33.36 -0.383,-1.25 -1.551,-2.07 -2.805,-2.07"
           style="fill:#000000;fill-opacity:1;fill-rule:nonzero;stroke:none"
           id="path3029" />
        <path
           d="m 726.742,3553.54 c -0.773,0 -1.547,0.3 -2.129,0.91 l -20.328,21.44 c -1.117,1.18 -1.066,3.04 0.113,4.15 1.172,1.11 3.028,1.07 4.153,-0.11 l 20.328,-21.43 c 1.117,-1.18 1.066,-3.04 -0.113,-4.16 -0.563,-0.54 -1.293,-0.8 -2.024,-0.8"
           style="fill:#000000;fill-opacity:1;fill-rule:nonzero;stroke:none"
           id="path3031" />
        <path
           d="m 705.266,3559.24 c -1.426,0 -2.676,1.04 -2.899,2.5 -0.25,1.6 0.852,3.1 2.461,3.35 l 14.016,2.15 c 1.562,0.27 3.105,-0.85 3.351,-2.46 0.246,-1.6 -0.855,-3.1 -2.461,-3.35 l -14.019,-2.15 c -0.149,-0.03 -0.301,-0.04 -0.449,-0.04"
           style="fill:#000000;fill-opacity:1;fill-rule:nonzero;stroke:none"
           id="path3033" />
        <path
           d="m 780.43,3586.98 c -1.45,0 -2.715,1.08 -2.907,2.56 l -1.808,13.9 c -0.211,1.61 0.93,3.09 2.531,3.3 1.637,0.14 3.086,-0.93 3.297,-2.54 l 1.812,-13.9 c 0.208,-1.61 -0.933,-3.08 -2.535,-3.29 -0.132,-0.02 -0.261,-0.03 -0.39,-0.03"
           style="fill:#000000;fill-opacity:1;fill-rule:nonzero;stroke:none"
           id="path3035" />
        <path
           d="m 821.703,3590.39 c -1.426,0 -2.68,1.05 -2.898,2.5 l -2.067,13.87 c -0.246,1.61 0.86,3.1 2.465,3.34 1.582,0.28 3.102,-0.86 3.34,-2.47 l 2.074,-13.86 c 0.242,-1.61 -0.867,-3.11 -2.469,-3.34 -0.152,-0.03 -0.293,-0.04 -0.445,-0.04"
           style="fill:#000000;fill-opacity:1;fill-rule:nonzero;stroke:none"
           id="path3037" />
        <path
           d="m 767.418,3613.61 c -0.453,0 -0.91,0.1 -1.34,0.33 -1.445,0.74 -2.012,2.51 -1.277,3.95 5.234,10.22 18.105,7.6 18.652,7.49 1.582,-0.34 2.586,-1.9 2.254,-3.48 -0.332,-1.59 -1.918,-2.59 -3.473,-2.27 -0.363,0.07 -9.035,1.76 -12.199,-4.42 -0.523,-1.01 -1.551,-1.6 -2.617,-1.6"
           style="fill:#000000;fill-opacity:1;fill-rule:nonzero;stroke:none"
           id="path3039" />
        <path
           d="m 807.703,3622.3 c -0.562,0 -1.137,0.16 -1.648,0.51 -1.336,0.91 -1.684,2.74 -0.774,4.08 2.129,3.13 5.008,5 8.309,5.41 6.629,0.81 12.582,-4.24 13.242,-4.82 1.215,-1.07 1.332,-2.92 0.262,-4.14 -1.059,-1.21 -2.906,-1.34 -4.141,-0.28 -1.258,1.1 -5.277,3.85 -8.644,3.42 -1.618,-0.21 -2.981,-1.16 -4.164,-2.9 -0.571,-0.84 -1.493,-1.28 -2.442,-1.28"
           style="fill:#000000;fill-opacity:1;fill-rule:nonzero;stroke:none"
           id="path3041" />
        <path
           d="m 755.313,2974.5 c -1.247,0 -2.383,0.83 -2.719,2.09 l -9.016,33.98 c -0.398,1.5 0.5,3.04 1.996,3.43 1.512,0.39 3.039,-0.5 3.43,-1.99 l 9.023,-33.98 c 0.391,-1.5 -0.5,-3.03 -1.996,-3.44 -0.246,-0.06 -0.488,-0.09 -0.718,-0.09"
           style="fill:#534579;fill-opacity:1;fill-rule:nonzero;stroke:none"
           id="path3043" />
        <path
           d="m 1021.74,3059.8 c -1.51,0 -2.76,1.22 -2.8,2.74 l -0.95,36.19 c -0.04,1.54 1.18,2.83 2.73,2.88 1.39,0.03 2.84,-1.19 2.89,-2.74 l 0.94,-36.18 c 0.04,-1.55 -1.18,-2.84 -2.73,-2.89 -0.03,0 -0.05,0 -0.08,0"
           style="fill:#534579;fill-opacity:1;fill-rule:nonzero;stroke:none"
           id="path3045" />
        <path
           d="m 991.871,3037.3 c -1.543,0 -2.801,1.25 -2.805,2.8 l -0.082,38.36 c -0.004,1.55 1.25,2.81 2.801,2.81 1.551,0 2.805,-1.25 2.809,-2.8 l 0.086,-38.36 c 0.008,-1.55 -1.25,-2.81 -2.805,-2.81 h -0.004"
           style="fill:#534579;fill-opacity:1;fill-rule:nonzero;stroke:none"
           id="path3047" />
        <path
           d="m 796.578,3538.14 c -9.332,0 -16.055,6.86 -18.582,11.09 -0.828,1.39 -0.367,3.19 1.02,4.02 1.394,0.84 3.187,0.39 4.027,-1.01 0.258,-0.42 6.504,-10.5 17.152,-7.74 1.602,0.43 3.172,-0.53 3.59,-2.09 0.414,-1.57 -0.531,-3.18 -2.097,-3.59 -1.778,-0.47 -3.485,-0.68 -5.11,-0.68"
           style="fill:#000000;fill-opacity:1;fill-rule:nonzero;stroke:none"
           id="path3049" />
        <path
           d="m 1797.53,2703.63 c -2.93,-6.62 -308,-207.43 -319.06,-206.22 -3.95,0.43 -14.09,14.5 -26.82,35.79 -23.21,38.71 -48.2,115.6 -64.92,162.06 0,0 107.94,68.7 121.4,69.59 13.58,0.9 174.11,-9.9 174.11,-9.9 0,0 48.38,13.4 78.37,1 8.77,-3.65 15.93,-9.15 21.42,-15.15 13.3,-14.53 17.6,-32.6 15.5,-37.17"
           style="fill:#ffb700;fill-opacity:1;fill-rule:nonzero;stroke:none"
           id="path3051" />
        <path
           d="m 1797.53,2703.63 c -2.93,-6.62 -308,-207.43 -319.06,-206.22 -3.95,0.43 -14.09,14.5 -26.82,35.79 l 330.38,207.6 c 13.3,-14.53 17.6,-32.6 15.5,-37.17"
           style="fill:#000000;fill-opacity:1;fill-rule:nonzero;stroke:none"
           id="path3053" />
        <path
           d="m 1546.88,2698.25 c -0.67,0 -1.33,0.23 -1.87,0.67 -0.97,0.8 -1.33,2.12 -0.89,3.3 l 21.91,58.53 c 0.57,1.53 2.24,2.3 3.78,1.73 1.52,-0.58 2.29,-2.27 1.73,-3.79 l -18.89,-50.48 83.57,51.71 c 1.39,0.84 3.2,0.42 4.05,-0.96 0.85,-1.38 0.43,-3.19 -0.95,-4.04 l -90.9,-56.23 c -0.47,-0.29 -1.01,-0.44 -1.54,-0.44"
           style="fill:#000000;fill-opacity:1;fill-rule:nonzero;stroke:none"
           id="path3055" />
        <path
           d="m 675.254,2981.84 c 0,0 436.606,222.05 532.856,190.39 126.36,-41.54 355.34,-384.2 355.34,-384.2 l -200.71,-194.25 c 0,0 -207.85,280.52 -241.13,276.81 -38.48,-4.29 -254.989,-95.35 -332.032,-70.59 -77.039,24.76 -114.324,181.84 -114.324,181.84"
           style="fill:#e2209e;fill-opacity:1;fill-rule:nonzero;stroke:none"
           id="path3057" />
        <path
           d="m 1155.13,2933.13 c -4.41,0 -8.12,-1.54 -11.3,-4.7 -11.18,-11.05 -12.48,-37.83 -12.42,-50.62 15.74,17.2 35.25,42.84 31.81,51.94 -0.27,0.72 -1.1,2.9 -6.56,3.32 -0.51,0.04 -1.03,0.06 -1.53,0.06 z m -26.47,-65.46 c -0.34,0 -0.69,0.05 -1.01,0.18 -1.1,0.4 -1.85,1.4 -1.93,2.57 -0.11,1.85 -2.77,45.63 13.97,62.19 4.77,4.71 10.62,6.87 17.42,6.32 7.59,-0.59 10.5,-4.18 11.6,-7.09 6.38,-16.84 -33.38,-58.57 -37.94,-63.28 -0.56,-0.58 -1.33,-0.89 -2.11,-0.89"
           style="fill:#5e1dbb;fill-opacity:1;fill-rule:nonzero;stroke:none"
           id="path3059" />
        <path
           d="m 914.262,3137.15 307.618,32.86 66.64,208.11 -295.497,-31.56 c -7.375,-0.78 -13.585,-5.85 -15.843,-12.91 l -62.918,-196.5"
           style="fill:#000000;fill-opacity:1;fill-rule:nonzero;stroke:none"
           id="path3061" />
        <path
           d="m 940.98,3140 307.63,32.86 59.47,185.73 c 3.37,10.54 -5.2,21.06 -16.2,19.89 L 1007.62,3348.12 940.98,3140"
           style="fill:#9a71f4;fill-opacity:1;fill-rule:nonzero;stroke:none"
           id="path3063" />
        <path
           d="m 813.824,3101.04 434.326,46.38 c 6.93,0.74 11.95,6.97 11.21,13.9 -0.74,6.93 -6.96,11.95 -13.89,11.21 l -434.325,-46.39 c -6.934,-0.74 -11.957,-6.96 -11.211,-13.89 0.734,-6.93 6.957,-11.95 13.89,-11.21"
           style="fill:#2e2865;fill-opacity:1;fill-rule:nonzero;stroke:none"
           id="path3065" />
        <path
           d="m 1101.39,3257.64 c 1.33,-12.52 12.57,-21.58 25.07,-20.24 12.52,1.33 21.58,12.56 20.24,25.08 -1.33,12.51 -12.56,21.57 -25.07,20.23 -12.51,-1.33 -21.58,-12.56 -20.24,-25.07"
           style="fill:#000000;fill-opacity:1;fill-rule:nonzero;stroke:none"
           id="path3067" />
        <path
           d="m 786.199,3451.11 c -29.164,0 -55.121,21.48 -55.469,21.78 -1.238,1.04 -1.398,2.89 -0.355,4.13 1.051,1.24 2.91,1.39 4.137,0.36 0.437,-0.37 44.242,-36.54 79.222,-11.68 1.329,0.94 3.164,0.62 4.098,-0.7 0.941,-1.32 0.629,-3.15 -0.691,-4.1 -10.063,-7.14 -20.696,-9.79 -30.942,-9.79"
           style="fill:#000000;fill-opacity:1;fill-rule:nonzero;stroke:none"
           id="path3069" />
        <path
           d="m 949.195,3275.5 c -0.496,0 -0.992,0.13 -1.453,0.39 l -29.804,17.01 c -1.411,0.81 -1.903,2.6 -1.102,4.01 0.809,1.41 2.605,1.89 4.008,1.1 L 950.652,3281 c 1.414,-0.81 1.899,-2.61 1.094,-4.01 -0.539,-0.95 -1.535,-1.49 -2.551,-1.49"
           style="fill:#000000;fill-opacity:1;fill-rule:nonzero;stroke:none"
           id="path3071" />
        <path
           d="m 699.453,3473.48 c 0,0 -270.105,-130.16 -215.613,-327.34 58.66,-212.28 364.047,-47.34 364.047,-47.34 l -17.02,168.37 -160.57,-17.15 29.156,223.46"
           style="fill:#5e1dbb;fill-opacity:1;fill-rule:nonzero;stroke:none"
           id="path3073" />
        <path
           d="m 616.363,3254.9 c -1.363,0 -2.59,0.96 -2.871,2.34 -0.332,1.59 0.692,3.15 2.278,3.47 88.804,18.34 189.273,12.26 190.277,12.2 1.621,-0.1 2.855,-1.5 2.746,-3.12 -0.098,-1.62 -1.508,-2.74 -3.117,-2.75 -1.004,0.09 -100.719,6.09 -188.711,-12.08 -0.203,-0.04 -0.402,-0.06 -0.602,-0.06"
           style="fill:#000000;fill-opacity:1;fill-rule:nonzero;stroke:none"
           id="path3075" />
        <path
           d="m 647.219,3292.52 c -0.949,0 -1.864,-0.06 -2.746,-0.18 -3.305,-0.46 -5.758,-1.82 -7.504,-4.16 -1.68,-2.25 -1.164,-3.27 -0.961,-3.66 3.344,-6.63 31.062,-9.87 54.043,-10.46 -10.5,7.03 -29.617,18.46 -42.832,18.46 z m 50.394,-24.44 c -13.515,0 -60.355,0.94 -66.855,13.79 -1.074,2.13 -1.692,5.56 1.504,9.83 2.695,3.61 6.531,5.78 11.406,6.46 20.902,2.97 56.078,-23.67 57.566,-24.8 1,-0.76 1.399,-2.07 1.008,-3.27 -0.566,-1.68 -2.164,-2.01 -4.629,-2.01"
           style="fill:#000000;fill-opacity:1;fill-rule:nonzero;stroke:none"
           id="path3077" />
        <path
           d="m 681.055,3037.16 c -1.364,0 -2.586,0.96 -2.875,2.35 -0.325,1.59 0.699,3.15 2.289,3.47 0.926,0.2 93.578,19.47 151.164,50.96 1.441,0.78 3.211,0.25 3.988,-1.17 0.785,-1.43 0.254,-3.22 -1.168,-3.99 -58.363,-31.92 -151.863,-51.36 -152.805,-51.56 -0.199,-0.04 -0.394,-0.06 -0.593,-0.06"
           style="fill:#000000;fill-opacity:1;fill-rule:nonzero;stroke:none"
           id="path3079" />
        <path
           d="m 893.121,3186.74 c -0.719,0 -1.433,0.27 -1.988,0.78 -0.922,0.84 -1.211,2.18 -0.719,3.32 l 7.949,18.45 c 0.637,1.5 2.367,2.17 3.86,1.54 1.488,-0.64 2.179,-2.37 1.539,-3.86 l -4.602,-10.69 9.668,5.22 c 1.445,0.77 3.215,0.22 3.988,-1.2 0.762,-1.43 0.231,-3.21 -1.195,-3.98 l -17.109,-9.23 c -0.434,-0.23 -0.918,-0.35 -1.391,-0.35"
           style="fill:#000000;fill-opacity:1;fill-rule:nonzero;stroke:none"
           id="path3081" />
        <path
           d="m 729.844,3589.11 8.933,-11.56 c 0,0 12.86,21.39 14.782,39 1.925,17.61 4.976,37.41 26.964,44.91 21.989,7.5 39.118,-13.28 39.118,-13.28 0,0 -11.536,64.95 -36.313,64.95 -24.769,0 -63.015,-31.67 -78.058,-52.5 -15.04,-20.83 -10.04,-40.95 -10.04,-40.95 0,0 -20.281,-7.94 -21.671,-17.66 -1.387,-9.72 15.718,-37.68 15.718,-37.68 0,0 6.016,38.8 40.567,24.77"
           style="fill:#000000;fill-opacity:1;fill-rule:nonzero;stroke:none"
           id="path3083" />
      </g>
    </g>
  </g>
</svg>
